<svg width="43" height="43" viewBox="0 0 43 43" fill="none" xmlns="http://www.w3.org/2000/svg">
<path opacity="0.15" fill-rule="evenodd" clip-rule="evenodd" d="M41.1377 20.314C40.9183 20.2228 40.6658 20.2732 40.4978 20.4416L38.7394 22.2057V10.2116C38.7394 9.88628 38.4766 9.62261 38.1523 9.62261H33.6413L35.2788 7.97985L35.2795 7.97906L36.8573 6.39617C37.1954 6.05704 37.3816 5.60591 37.3816 5.12624C37.3816 4.64658 37.1954 4.1956 36.8573 3.85631L35.0328 2.02591C34.6948 1.68677 34.2451 1.5 33.7669 1.5C33.2888 1.5 32.8392 1.68677 32.5011 2.02591L30.9225 3.60958L29.015 5.52322L24.9288 9.62254H6.7047V3.79564C6.7047 3.4703 6.44181 3.20665 6.11759 3.20665C3.57149 3.20681 1.5 5.2848 1.5 7.83924V32.8559C1.5 32.8994 1.505 32.9417 1.51391 32.9825C1.595 34.0664 2.06242 35.0734 2.8436 35.8379C3.6786 36.6549 4.78087 37.1048 5.94743 37.1048H23.8879L20.5091 40.4946C20.3412 40.663 20.291 40.9162 20.3818 41.1364C20.4727 41.3565 20.6868 41.5 20.9243 41.5H40.913C41.2372 41.5 41.5001 41.2364 41.5001 40.911V20.8582C41.5001 20.62 41.357 20.4052 41.1377 20.314ZM33.3315 2.85897C33.5715 2.61804 33.9626 2.61804 34.2026 2.85897L36.0272 4.68945C36.2673 4.9303 36.2673 5.32242 36.0272 5.56335L34.8638 6.73053L32.168 4.02615L33.3315 2.85897ZM31.3377 4.85913L34.0334 7.56343L32.9562 8.64417L30.2606 5.93987L31.3377 4.85913ZM18.8967 22.26L17.215 22.8556L16.0945 21.7315L16.6882 20.0444L18.8967 22.26ZM36.3293 30.6707L30.6707 36.3293C30.6077 36.3923 30.6523 36.5 30.7414 36.5H36.5V30.7414C36.5 30.6523 36.3923 30.6077 36.3293 30.6707ZM16.5 19L20 22.5L33 9.5L29.5 6L16.5 19Z" fill="url(#paint0_linear_582_5)"/>
<path d="M36.8998 29.755C36.6804 29.6638 36.4279 29.7142 36.26 29.8826L29.8439 36.3194C29.676 36.4879 29.6257 36.7412 29.7167 36.9613C29.8075 37.1815 30.0217 37.3249 30.2591 37.3249H36.6752C36.9995 37.3249 37.2623 37.0612 37.2623 36.7359V30.2991C37.2622 30.061 37.1192 29.8462 36.8998 29.755ZM31.6763 36.147L36.0879 31.7211V36.147H31.6763Z" fill="url(#paint1_linear_582_5)"/>
<path d="M41.1377 20.314C40.9183 20.2228 40.6658 20.2732 40.4978 20.4416L38.7394 22.2057V10.2116C38.7394 9.88628 38.4766 9.62261 38.1523 9.62261H33.6413L35.2788 7.97985C35.2791 7.97962 35.2793 7.97929 35.2795 7.97906L36.8573 6.39617C37.1954 6.05704 37.3816 5.60591 37.3816 5.12624C37.3816 4.64658 37.1954 4.1956 36.8573 3.85631L35.0328 2.02591C34.6948 1.68677 34.2451 1.5 33.7669 1.5C33.2888 1.5 32.8392 1.68677 32.5011 2.02591L30.9225 3.60958L29.015 5.52322L24.9288 9.62254H6.7047V3.79564C6.7047 3.4703 6.44181 3.20665 6.11759 3.20665C3.57149 3.20681 1.5 5.2848 1.5 7.83924V32.8559C1.5 32.8994 1.505 32.9417 1.51391 32.9825C1.595 34.0664 2.06242 35.0734 2.8436 35.8379C3.6786 36.6549 4.78087 37.1048 5.94743 37.1048H23.8879L20.5091 40.4946C20.3412 40.663 20.291 40.9162 20.3818 41.1364C20.4727 41.3565 20.6868 41.5 20.9243 41.5H40.913C41.2372 41.5 41.5001 41.2364 41.5001 40.911V20.8582C41.5001 20.62 41.357 20.4052 41.1377 20.314ZM33.3315 2.85897C33.5715 2.61804 33.9626 2.61804 34.2026 2.85897L36.0272 4.68945C36.2673 4.9303 36.2673 5.32242 36.0272 5.56335L34.8638 6.73053L32.168 4.02615L33.3315 2.85897ZM31.3377 4.85913L34.0334 7.56343L32.9562 8.64417L30.2606 5.93987L31.3377 4.85913ZM40.326 27.4764H39.2428C38.9185 27.4764 38.6557 27.7401 38.6557 28.0654C38.6557 28.3908 38.9185 28.6544 39.2428 28.6544H40.326V30.4293H39.2428C38.9185 30.4293 38.6557 30.6931 38.6557 31.0184C38.6557 31.3437 38.9185 31.6074 39.2428 31.6074H40.326V33.3822H39.2428C38.9185 33.3822 38.6557 33.6458 38.6557 33.9712C38.6557 34.2965 38.9185 34.5602 39.2428 34.5602H40.326V36.3351H39.2428C38.9185 36.3351 38.6557 36.5988 38.6557 36.9241C38.6557 37.2495 38.9185 37.5131 39.2428 37.5131H40.326V40.3222H22.3416L28.2719 34.373C28.5012 34.1428 28.5012 33.77 28.2719 33.54C28.2456 33.5135 28.2173 33.4906 28.1877 33.4703C27.9591 33.3133 27.6446 33.3363 27.4415 33.54L25.0622 35.927H5.94751C4.16688 35.927 2.73344 34.5324 2.67703 32.7493C2.68039 32.6373 2.68906 32.5263 2.70297 32.4166C2.70305 32.416 2.70313 32.4154 2.70321 32.4147C2.70977 32.3626 2.71766 32.3107 2.72664 32.2592C2.72766 32.2533 2.72875 32.2473 2.72977 32.2415C2.73797 32.1955 2.74719 32.1497 2.75727 32.1041C2.76008 32.0914 2.76305 32.0787 2.76602 32.0661C2.77492 32.0275 2.78453 31.9892 2.79485 31.951C2.80047 31.9303 2.80633 31.9099 2.81235 31.8893C2.82094 31.8593 2.82985 31.8295 2.8393 31.7999C2.84875 31.7704 2.85883 31.7411 2.86907 31.7119C2.87617 31.6915 2.88321 31.671 2.89086 31.6507C2.90516 31.6121 2.92032 31.574 2.93594 31.5361C2.94039 31.5252 2.94477 31.5142 2.94938 31.5033C2.96946 31.4562 2.99032 31.4098 3.01235 31.3638C3.01328 31.3619 3.01414 31.3599 3.01508 31.358C3.4743 30.4046 4.35751 29.6938 5.41743 29.4732C5.4204 29.4726 5.42337 29.4719 5.42634 29.4712C5.47493 29.4613 5.52399 29.4528 5.57337 29.4449C5.58157 29.4436 5.58977 29.4418 5.59813 29.4406C5.64274 29.4338 5.68782 29.4285 5.7329 29.4234C5.74556 29.422 5.75813 29.42 5.77087 29.4188C5.81438 29.4144 5.85829 29.4115 5.9022 29.4087C5.9161 29.4078 5.93001 29.4064 5.94392 29.4057C6.00142 29.4028 6.05938 29.4013 6.11759 29.4013C6.44181 29.4013 6.7047 29.1377 6.7047 28.8123V24.5416C6.7047 24.2163 6.44181 23.9527 6.11759 23.9527C5.79337 23.9527 5.53048 24.2163 5.53048 24.5416V28.2604C4.53907 28.3862 3.61883 28.8298 2.89321 29.5407C2.81688 29.6154 2.74453 29.6932 2.67406 29.7722V7.83924C2.67406 6.13526 3.91047 4.71531 5.5304 4.43488V22.1858C5.5304 22.511 5.79329 22.7748 6.11751 22.7748C6.44173 22.7748 6.70462 22.511 6.70462 22.1858V10.8006H23.7547L20.509 14.0567C20.2797 14.2868 20.2797 14.6597 20.509 14.8897C20.7383 15.1196 21.11 15.1196 21.3393 14.8897L25.5872 10.6281C25.5871 10.6282 25.5873 10.628 25.5872 10.6281L29.4301 6.77278L32.1257 9.47715L31.8094 9.79441C31.8092 9.79465 31.8089 9.79488 31.8087 9.79513L19.9705 21.6715L17.2749 18.9672L19.6083 16.6263C19.8376 16.3961 19.8376 16.0233 19.6083 15.7933C19.379 15.5634 19.0073 15.5634 18.7781 15.7933L16.0294 18.5507C16.0147 18.5655 16.001 18.581 15.9881 18.597C15.9838 18.6024 15.98 18.6081 15.9759 18.6136C15.9676 18.6247 15.9595 18.6358 15.9519 18.6474C15.9476 18.6542 15.9437 18.6611 15.9396 18.668C15.9332 18.679 15.9269 18.6902 15.9212 18.7015C15.9175 18.7088 15.9141 18.7164 15.9107 18.724C15.9054 18.7355 15.9006 18.7473 15.8961 18.759C15.8946 18.7632 15.8925 18.7671 15.891 18.7712L14.7472 22.022L13.9674 24.2384C13.9571 24.2678 13.9496 24.2978 13.9441 24.328H11.9916C11.6674 24.328 11.4045 24.5916 11.4045 24.9169C11.4045 25.2423 11.6674 25.5059 11.9916 25.5059H28.2505C28.5748 25.5059 28.8376 25.2423 28.8376 24.9169C28.8376 24.5916 28.5748 24.328 28.2505 24.328H16.5854L20.1659 23.0599C20.1689 23.0589 20.1717 23.0574 20.1746 23.0563C20.1886 23.0511 20.2022 23.0452 20.2157 23.0391C20.2211 23.0366 20.2265 23.0342 20.2318 23.0316C20.2458 23.0246 20.2596 23.0168 20.2732 23.0085C20.2776 23.0058 20.2821 23.0034 20.2864 23.0007C20.3006 22.9916 20.3143 22.9816 20.3279 22.9711C20.3312 22.9686 20.3347 22.9663 20.338 22.9636C20.3543 22.9504 20.3703 22.9363 20.3855 22.921L32.4671 10.8007H37.5652V23.3837L29.167 31.8089C28.9377 32.0391 28.9377 32.4119 29.167 32.6419C29.1813 32.6563 29.1962 32.6698 29.2116 32.6823C29.3193 32.7704 29.4508 32.8145 29.5822 32.8145C29.7136 32.8145 29.8451 32.7704 29.9527 32.6823C29.9681 32.6698 29.983 32.6563 29.9973 32.6419L40.326 22.2799V27.4764ZM18.8967 22.26L17.215 22.8556L16.0945 21.7315L16.6882 20.0444L18.8967 22.26Z" fill="url(#paint2_linear_582_5)"/>
<path d="M25.5872 10.6281L21.3393 14.8897C21.11 15.1196 20.7383 15.1196 20.509 14.8897C20.2797 14.6597 20.2797 14.2868 20.509 14.0567L23.7547 10.8006H6.70462V22.1858C6.70462 22.511 6.44173 22.7748 6.11751 22.7748C5.79329 22.7748 5.5304 22.511 5.5304 22.1858V4.43488C3.91047 4.71531 2.67406 6.13526 2.67406 7.83924V29.7722C2.74453 29.6932 2.81688 29.6154 2.89321 29.5407C3.61883 28.8298 4.53907 28.3862 5.53048 28.2604V24.5416C5.53048 24.2163 5.79337 23.9527 6.11759 23.9527C6.44181 23.9527 6.7047 24.2163 6.7047 24.5416V28.8123C6.7047 29.1377 6.44181 29.4013 6.11759 29.4013C6.05938 29.4013 6.00142 29.4028 5.94392 29.4057C5.93001 29.4064 5.9161 29.4078 5.9022 29.4087C5.85829 29.4115 5.81438 29.4144 5.77087 29.4188C5.75813 29.42 5.74556 29.422 5.7329 29.4234C5.68782 29.4285 5.64274 29.4338 5.59813 29.4406C5.58977 29.4418 5.58157 29.4436 5.57337 29.4449C5.52399 29.4528 5.47493 29.4613 5.42634 29.4712C5.42337 29.4719 5.4204 29.4726 5.41743 29.4732C4.35751 29.6938 3.4743 30.4046 3.01508 31.358C3.01414 31.3599 3.01328 31.3619 3.01235 31.3638C2.99032 31.4098 2.96946 31.4562 2.94938 31.5033C2.94477 31.5142 2.94039 31.5252 2.93594 31.5361C2.92032 31.574 2.90516 31.6121 2.89086 31.6507C2.88321 31.671 2.87617 31.6915 2.86907 31.7119C2.85883 31.7411 2.84875 31.7704 2.8393 31.7999C2.82985 31.8295 2.82094 31.8593 2.81235 31.8893C2.80633 31.9099 2.80047 31.9303 2.79485 31.951C2.78453 31.9892 2.77492 32.0275 2.76602 32.0661C2.76305 32.0787 2.76008 32.0914 2.75727 32.1041C2.74719 32.1497 2.73797 32.1955 2.72977 32.2415C2.72875 32.2473 2.72766 32.2533 2.72664 32.2592C2.71766 32.3107 2.70977 32.3626 2.70321 32.4147C2.70313 32.4154 2.70305 32.416 2.70297 32.4166C2.68906 32.5263 2.68039 32.6373 2.67703 32.7493C2.73344 34.5324 4.16688 35.927 5.94751 35.927H25.0622L27.4415 33.54C27.6446 33.3363 27.9591 33.3133 28.1877 33.4703C28.2173 33.4906 28.2456 33.5135 28.2719 33.54C28.5012 33.77 28.5012 34.1428 28.2719 34.373L22.3416 40.3222H40.326V37.5131H39.2428C38.9185 37.5131 38.6557 37.2495 38.6557 36.9241C38.6557 36.5988 38.9185 36.3351 39.2428 36.3351H40.326V34.5602H39.2428C38.9185 34.5602 38.6557 34.2965 38.6557 33.9712C38.6557 33.6458 38.9185 33.3822 39.2428 33.3822H40.326V31.6074H39.2428C38.9185 31.6074 38.6557 31.3437 38.6557 31.0184C38.6557 30.6931 38.9185 30.4293 39.2428 30.4293H40.326V28.6544H39.2428C38.9185 28.6544 38.6557 28.3908 38.6557 28.0654C38.6557 27.7401 38.9185 27.4764 39.2428 27.4764H40.326V22.2799L29.9973 32.6419C29.983 32.6563 29.9681 32.6698 29.9527 32.6823C29.8451 32.7704 29.7136 32.8145 29.5822 32.8145C29.4508 32.8145 29.3193 32.7704 29.2116 32.6823C29.1962 32.6698 29.1813 32.6563 29.167 32.6419C28.9377 32.4119 28.9377 32.0391 29.167 31.8089L37.5652 23.3837V10.8007H32.4671L20.3855 22.921C20.3703 22.9363 20.3543 22.9504 20.338 22.9636C20.3347 22.9663 20.3312 22.9686 20.3279 22.9711C20.3143 22.9816 20.3006 22.9916 20.2864 23.0007C20.2821 23.0034 20.2776 23.0058 20.2732 23.0085C20.2596 23.0168 20.2458 23.0246 20.2318 23.0316C20.2265 23.0342 20.2211 23.0366 20.2157 23.0391C20.2022 23.0452 20.1886 23.0511 20.1746 23.0563C20.1717 23.0574 20.1689 23.0589 20.1659 23.0599L16.5854 24.328H28.2505C28.5748 24.328 28.8376 24.5916 28.8376 24.9169C28.8376 25.2423 28.5748 25.5059 28.2505 25.5059H11.9916C11.6674 25.5059 11.4045 25.2423 11.4045 24.9169C11.4045 24.5916 11.6674 24.328 11.9916 24.328H13.9441C13.9496 24.2978 13.9571 24.2678 13.9674 24.2384L14.7472 22.022L15.891 18.7712C15.8925 18.7671 15.8946 18.7632 15.8961 18.759C15.9006 18.7473 15.9054 18.7355 15.9107 18.724C15.9141 18.7164 15.9175 18.7088 15.9212 18.7015C15.9269 18.6902 15.9332 18.679 15.9396 18.668C15.9437 18.6611 15.9476 18.6542 15.9519 18.6474C15.9595 18.6358 15.9676 18.6247 15.9759 18.6136C15.98 18.6081 15.9838 18.6024 15.9881 18.597C16.001 18.581 16.0147 18.5655 16.0294 18.5507L18.7781 15.7933C19.0073 15.5634 19.379 15.5634 19.6083 15.7933C19.8376 16.0233 19.8376 16.3961 19.6083 16.6263L17.2749 18.9672L19.9705 21.6715L31.8087 9.79513C31.8089 9.79488 31.8092 9.79465 31.8094 9.79441L32.1257 9.47715L29.4301 6.77278L25.5872 10.6281ZM25.5872 10.6281C25.5873 10.628 25.5871 10.6282 25.5872 10.6281ZM41.1377 20.314C40.9183 20.2228 40.6658 20.2732 40.4978 20.4416L38.7394 22.2057V10.2116C38.7394 9.88628 38.4766 9.62261 38.1523 9.62261H33.6413L35.2788 7.97985C35.2791 7.97962 35.2793 7.97929 35.2795 7.97906L36.8573 6.39617C37.1954 6.05704 37.3816 5.60591 37.3816 5.12624C37.3816 4.64658 37.1954 4.1956 36.8573 3.85631L35.0328 2.02591C34.6948 1.68677 34.2451 1.5 33.7669 1.5C33.2888 1.5 32.8392 1.68677 32.5011 2.02591L30.9225 3.60958L29.015 5.52322L24.9288 9.62254H6.7047V3.79564C6.7047 3.4703 6.44181 3.20665 6.11759 3.20665C3.57149 3.20681 1.5 5.2848 1.5 7.83924V32.8559C1.5 32.8994 1.505 32.9417 1.51391 32.9825C1.595 34.0664 2.06242 35.0734 2.8436 35.8379C3.6786 36.6549 4.78087 37.1048 5.94743 37.1048H23.8879L20.5091 40.4946C20.3412 40.663 20.291 40.9162 20.3818 41.1364C20.4727 41.3565 20.6868 41.5 20.9243 41.5H40.913C41.2372 41.5 41.5001 41.2364 41.5001 40.911V20.8582C41.5001 20.62 41.357 20.4052 41.1377 20.314ZM33.3315 2.85897C33.5715 2.61804 33.9626 2.61804 34.2026 2.85897L36.0272 4.68945C36.2673 4.9303 36.2673 5.32242 36.0272 5.56335L34.8638 6.73053L32.168 4.02615L33.3315 2.85897ZM31.3377 4.85913L34.0334 7.56343L32.9562 8.64417L30.2606 5.93987L31.3377 4.85913ZM18.8967 22.26L17.215 22.8556L16.0945 21.7315L16.6882 20.0444L18.8967 22.26Z" stroke="url(#paint3_linear_582_5)" stroke-width="0.25"/>
<defs>
<linearGradient id="paint0_linear_582_5" x1="21.5" y1="1.5" x2="21.5" y2="41.5" gradientUnits="userSpaceOnUse">
<stop stop-color="#CBFF33"/>
<stop offset="0.73" stop-color="#70D013"/>
<stop offset="1" stop-color="#4FBF07"/>
</linearGradient>
<linearGradient id="paint1_linear_582_5" x1="33.4671" y1="29.7101" x2="33.4671" y2="37.3249" gradientUnits="userSpaceOnUse">
<stop stop-color="#CBFF33"/>
<stop offset="0.73" stop-color="#70D013"/>
<stop offset="1" stop-color="#4FBF07"/>
</linearGradient>
<linearGradient id="paint2_linear_582_5" x1="21.5" y1="1.5" x2="21.5" y2="41.5" gradientUnits="userSpaceOnUse">
<stop stop-color="#CBFF33"/>
<stop offset="0.73" stop-color="#70D013"/>
<stop offset="1" stop-color="#4FBF07"/>
</linearGradient>
<linearGradient id="paint3_linear_582_5" x1="21.5" y1="1.5" x2="21.5" y2="41.5" gradientUnits="userSpaceOnUse">
<stop stop-color="#CBFF33"/>
<stop offset="0.73" stop-color="#70D013"/>
<stop offset="1" stop-color="#4FBF07"/>
</linearGradient>
</defs>
</svg>
