<svg width="37" height="43" viewBox="0 0 37 43" fill="none" xmlns="http://www.w3.org/2000/svg">
<g clip-path="url(#clip0_582_9)">
<path d="M32.4999 6.53006C33.0467 6.4867 33.5967 6.50346 34.1399 6.58005C34.809 6.71895 35.4106 7.08212 35.8452 7.60947C36.2798 8.13682 36.5214 8.79673 36.5299 9.48004C36.5299 19.48 36.5299 29.5 36.5299 39.54C36.5299 40.3357 36.2138 41.0988 35.6512 41.6614C35.0886 42.224 34.3255 42.54 33.5299 42.54C33.0199 42.54 32.5299 42.54 31.9899 42.54C31.8763 42.3117 31.8171 42.0601 31.8171 41.8051C31.8171 41.55 31.8763 41.2984 31.9899 41.07H33.3899C33.6016 41.0847 33.814 41.054 34.0129 40.9799C34.2118 40.9058 34.3925 40.7901 34.5431 40.6405C34.6936 40.4909 34.8105 40.3109 34.8858 40.1125C34.9611 39.9141 34.9932 39.7019 34.9799 39.4901C34.9799 38.4401 34.9799 37.4001 34.9799 36.3501V9.82004C34.9799 8.55004 34.4399 8.01004 33.1599 8.01004H32.4499C32.3475 7.7752 32.2988 7.52046 32.3074 7.26441C32.3161 7.00835 32.3818 6.75746 32.4999 6.53006Z" fill="url(#paint0_linear_582_9)"/>
<path d="M15.6301 2.00004C14.8046 1.96996 13.9792 2.06091 13.1801 2.27003C12.1214 2.60951 11.1981 3.27693 10.5438 4.17576C9.88943 5.0746 9.53793 6.15825 9.5401 7.27003C9.5401 10.49 9.5401 13.71 9.5401 16.93C9.55574 17.9369 9.23169 18.9197 8.62027 19.7198C8.00885 20.5199 7.14571 21.0907 6.17009 21.34C6.0182 21.3699 5.86456 21.3899 5.7101 21.4C5.1901 21.47 4.97009 21.31 4.92009 20.83C4.86257 20.5557 4.88692 20.2706 4.9901 20.01C5.15935 19.8694 5.37024 19.7886 5.59009 19.78C6.2627 19.6681 6.8707 19.3128 7.29845 18.7818C7.7262 18.2507 7.94389 17.5811 7.9101 16.9C7.9101 13.8 7.9101 10.69 7.9101 7.59004C7.87425 6.61297 8.04349 5.63923 8.40691 4.73155C8.77033 3.82387 9.31986 3.00238 10.0201 2.32002C10.0642 2.28146 10.0926 2.22811 10.1001 2.17003C9.9901 2.09003 9.8501 2.17003 9.7201 2.17003C8.3713 2.27352 7.07077 2.71736 5.9401 3.46004C5.77848 3.61319 5.56267 3.69593 5.34009 3.69005C5.13147 3.51684 4.98949 3.27651 4.93842 3.01021C4.88735 2.7439 4.93035 2.46813 5.06009 2.23002C5.09639 2.16121 5.13646 2.09446 5.1801 2.03004C6.52099 1.13739 8.08073 0.629006 9.6901 0.560042C11.6901 0.490042 13.6901 0.560042 15.6901 0.560042C15.7849 0.79012 15.8286 1.03802 15.8182 1.28663C15.8078 1.53525 15.7437 1.77865 15.6301 2.00004Z" fill="url(#paint1_linear_582_9)"/>
<path d="M17.4999 8.00006H15.8199C15.5782 7.96344 15.3312 7.98377 15.0988 8.05945C14.8663 8.13513 14.6547 8.26407 14.4808 8.43598C14.307 8.60788 14.1757 8.81801 14.0974 9.04962C14.0191 9.28124 13.996 9.52793 14.0299 9.77005V32.39C14.0299 33.14 13.8099 33.4801 13.3199 33.4901C12.8299 33.5001 12.5299 33.1701 12.5299 32.4101V9.70005C12.5018 9.27299 12.5654 8.84488 12.7164 8.44443C12.8674 8.04398 13.1023 7.68045 13.4054 7.3783C13.7085 7.07615 14.0728 6.84235 14.4737 6.6926C14.8746 6.54284 15.303 6.48059 15.7299 6.51004H17.4999C17.6168 6.741 17.6777 6.99623 17.6777 7.25507C17.6777 7.51391 17.6168 7.76911 17.4999 8.00006Z" fill="url(#paint2_linear_582_9)"/>
<path d="M17.4999 8.00006V6.53006C19.4299 6.53006 21.3499 6.53006 23.2699 6.53006C23.6699 6.53006 23.7999 6.45005 23.7999 6.02005C23.8272 5.48756 23.7424 4.95527 23.551 4.45761C23.3597 3.95995 23.066 3.508 22.6889 3.13098C22.3119 2.75396 21.86 2.46029 21.3623 2.26892C20.8647 2.07756 20.3324 1.99276 19.7999 2.02005H15.6299V0.550049C17.1899 0.550049 18.7599 0.550049 20.3199 0.550049C21.6279 0.60641 22.8671 1.15128 23.7929 2.07703C24.7186 3.00277 25.2635 4.24206 25.3199 5.55005C25.3199 6.97005 25.3199 8.39006 25.3199 9.81006C25.3199 10.1701 25.4199 10.2801 25.7699 10.2501C26.1029 10.2292 26.4369 10.2292 26.7699 10.2501C26.8749 10.2402 26.9809 10.2526 27.0808 10.2865C27.1808 10.3204 27.2724 10.375 27.3498 10.4467C27.4272 10.5184 27.4886 10.6057 27.53 10.7028C27.5713 10.7998 27.5917 10.9045 27.5899 11.01C27.5916 11.112 27.572 11.2132 27.5322 11.3071C27.4925 11.401 27.4335 11.4856 27.359 11.5553C27.2846 11.625 27.1964 11.6784 27.1001 11.7119C27.0038 11.7455 26.9015 11.7585 26.7999 11.7501H22.3899C22.2877 11.757 22.1852 11.7427 22.0889 11.7079C21.9926 11.6732 21.9045 11.6189 21.8303 11.5484C21.756 11.4779 21.6972 11.3928 21.6576 11.2984C21.6179 11.204 21.5983 11.1024 21.5999 11.0001C21.5968 10.8982 21.6152 10.7968 21.6537 10.7024C21.6922 10.608 21.7501 10.5228 21.8236 10.4521C21.8971 10.3815 21.9845 10.327 22.0803 10.2922C22.1761 10.2574 22.2782 10.243 22.3799 10.2501C22.7599 10.2501 23.1299 10.2501 23.5099 10.2501C23.8899 10.2501 23.8599 10.15 23.8499 9.89005C23.8499 9.39005 23.8499 8.89005 23.8499 8.39005C23.8499 8.05005 23.7399 7.98005 23.4199 7.99005L17.4999 8.00006Z" fill="url(#paint3_linear_582_9)"/>
<path d="M5.02999 20.01V20.75C5.02999 21.23 5.18999 21.38 5.69999 21.42C5.17328 21.5357 4.62825 21.5403 4.09966 21.4336C3.57107 21.3268 3.07054 21.111 2.63 20.8C1.98883 20.417 1.45876 19.8733 1.0922 19.2226C0.725641 18.5719 0.535299 17.8368 0.54 17.09C0.54 14.69 0.45 12.28 0.54 9.88004C0.573089 8.2886 1.00976 6.73163 1.80909 5.3551C2.60842 3.97858 3.74421 2.82757 5.10999 2.01001C5.03711 2.35511 5.00358 2.70737 5.01 3.06003C4.99521 3.17423 5.01731 3.29015 5.07308 3.3909C5.12885 3.49165 5.21537 3.57193 5.32 3.62003C5.32 3.84003 5.16 3.94001 5.02 4.07001C4.10697 4.83282 3.37558 5.78968 2.8791 6.87088C2.38261 7.95208 2.13354 9.13038 2.15 10.32C2.15 12.46 2.15 14.59 2.15 16.73C2.07618 17.4626 2.29076 18.1951 2.74819 18.772C3.20563 19.3489 3.8699 19.7249 4.6 19.82C4.76202 19.8275 4.91538 19.8952 5.02999 20.01Z" fill="url(#paint4_linear_582_9)"/>
<path d="M27.44 38.0001C26.5815 38.0338 25.7398 38.2485 24.97 38.6301C24.8423 38.7038 24.6975 38.7426 24.55 38.7426C24.4026 38.7426 24.2577 38.7038 24.13 38.6301C23.293 38.2157 22.3739 37.9936 21.44 37.98C21.3481 37.8079 21.2935 37.6183 21.2797 37.4236C21.2659 37.2289 21.2933 37.0335 21.36 36.8501C21.3833 36.7407 21.444 36.643 21.5316 36.5736C21.6192 36.5042 21.7283 36.4676 21.84 36.4701C22.01 36.4701 22.19 36.4701 22.36 36.4701C22.6565 36.4786 22.9499 36.5326 23.23 36.6301C23.51 36.7001 23.64 36.63 23.64 36.3V30.18C23.64 29.59 23.64 29.5301 23.03 29.3701C22.653 29.267 22.2685 29.1934 21.88 29.1501C21.7083 29.1641 21.5373 29.1142 21.4 29.01C21.301 28.7759 21.25 28.5243 21.25 28.27C21.25 28.0158 21.301 27.7642 21.4 27.5301C22.3504 27.5445 23.291 27.7238 24.18 28.0601C24.2948 28.1042 24.4179 28.1226 24.5406 28.114C24.6633 28.1053 24.7826 28.0698 24.89 28.01C25.9819 27.5508 27.1811 27.4087 28.35 27.6001C28.2109 27.6174 28.077 27.6638 27.9569 27.7363C27.8369 27.8088 27.7334 27.9057 27.6533 28.0207C27.5731 28.1358 27.5181 28.2664 27.4917 28.4041C27.4653 28.5418 27.4681 28.6835 27.5 28.82C27.5027 28.867 27.493 28.9139 27.472 28.956C27.4509 28.9981 27.4192 29.034 27.38 29.0601C26.9337 29.1896 26.4794 29.2898 26.02 29.36C25.47 29.53 25.39 29.6201 25.39 30.1901C25.39 32.1901 25.39 34.19 25.39 36.14C25.39 36.65 25.39 36.6601 25.93 36.5601C26.5555 36.4123 27.1978 36.3485 27.84 36.3701C28.02 36.3701 28.22 36.37 28.35 36.54C28.48 36.71 28.25 36.68 28.16 36.71C27.56 36.9 27.56 36.9 27.53 37.52C27.5595 37.6857 27.5275 37.8564 27.44 38.0001Z" fill="url(#paint5_linear_582_9)"/>
<path d="M24.9401 14.1C25.6143 14.1388 26.2629 14.3719 26.8077 14.7711C27.3524 15.1704 27.77 15.7187 28.0101 16.35C28.2926 16.9994 28.375 17.7183 28.2467 18.4148C28.1185 19.1113 27.7854 19.7538 27.2901 20.2599C27.0001 20.5899 27.0701 20.66 27.3901 20.87C28.1011 21.3152 28.6919 21.9283 29.1104 22.6555C29.5289 23.3826 29.7623 24.2014 29.7901 25.0399C29.7901 25.6399 29.5601 25.9699 29.0801 26.0399C28.6001 26.1099 28.3301 25.76 28.2901 25.16C28.1501 23 26.6901 21.66 24.3601 21.55C24.1759 21.1026 24.1442 20.6071 24.2701 20.1399C24.4201 19.8699 24.7001 19.93 24.9301 19.87C25.2482 19.8186 25.5501 19.694 25.8119 19.506C26.0736 19.318 26.2881 19.0717 26.4384 18.7866C26.5887 18.5015 26.6707 18.1854 26.678 17.8632C26.6852 17.541 26.6174 17.2215 26.4801 16.93C26.3575 16.6261 26.1588 16.3589 25.9031 16.154C25.6475 15.9491 25.3434 15.8134 25.0201 15.7599C24.7601 15.6999 24.4401 15.76 24.2701 15.46C24.2101 15.2318 24.1898 14.995 24.2101 14.7599C24.2101 14.0599 24.2601 14.01 24.9401 14.1Z" fill="url(#paint6_linear_582_9)"/>
<path d="M24.9399 14.1C24.4299 14.02 24.2999 14.27 24.3499 14.73C24.365 14.9897 24.365 15.2502 24.3499 15.51C24.2699 15.71 24.0799 15.7 23.9199 15.75C23.478 15.8614 23.0874 16.1204 22.8128 16.4841C22.5382 16.8478 22.3961 17.2945 22.4099 17.75C22.4067 18.203 22.5528 18.6444 22.8258 19.006C23.0988 19.3675 23.4833 19.629 23.9199 19.75C24.0799 19.8 24.2699 19.75 24.3499 19.99V21.49C23.8537 21.5611 23.3672 21.6886 22.8999 21.87C22.2732 22.1629 21.7424 22.6274 21.369 23.2097C20.9955 23.792 20.7948 24.4682 20.7899 25.16C20.7899 25.82 20.2099 26.16 19.6699 25.88C19.5358 25.8135 19.4265 25.7057 19.3581 25.5725C19.2897 25.4394 19.2658 25.2877 19.2899 25.14C19.3048 24.3005 19.5216 23.477 19.9219 22.739C20.3222 22.001 20.8943 21.3702 21.5899 20.9L22.0799 20.58C21.4278 19.9832 20.9888 19.1895 20.8299 18.32C20.6676 17.3613 20.8924 16.3775 21.4549 15.5844C22.0173 14.7913 22.8715 14.2538 23.8299 14.09C24.1917 13.9763 24.5802 13.9798 24.9399 14.1Z" fill="url(#paint7_linear_582_9)"/>
<path d="M27.4399 38.0001V37.58C27.4399 36.67 27.4899 36.58 28.3899 36.58C28.6599 36.38 28.9299 36.53 29.1999 36.58C29.4699 36.63 29.6399 36.58 29.6399 36.26V29.95C29.65 29.8242 29.6139 29.699 29.5385 29.5978C29.4631 29.4966 29.3534 29.4264 29.2299 29.4001C28.7994 29.2666 28.3576 29.1729 27.9099 29.1201C27.7399 29.1201 27.5599 29.1201 27.4399 28.9701V28.55C27.4399 27.68 27.5199 27.55 28.3899 27.55C29.2353 27.6487 30.0573 27.8923 30.8199 28.2701C30.9709 28.3362 31.0974 28.448 31.1817 28.5897C31.266 28.7313 31.3038 28.8958 31.2899 29.0601C31.2899 31.9901 31.2899 34.9301 31.2899 37.8701C31.309 38.0121 31.287 38.1566 31.2265 38.2865C31.166 38.4164 31.0696 38.5263 30.9486 38.6031C30.8276 38.6799 30.6871 38.7204 30.5438 38.7199C30.4005 38.7193 30.2603 38.6778 30.1399 38.6001C29.2939 38.2072 28.3727 38.0025 27.4399 38.0001Z" fill="url(#paint8_linear_582_9)"/>
<path d="M22.3899 36.6001H21.9399C21.5799 36.6001 21.3999 36.7501 21.4099 37.1201C21.4199 37.4901 21.4099 37.7001 21.4099 38.0001C20.5378 38.0443 19.6839 38.2655 18.8999 38.6501C18.7789 38.7256 18.6388 38.7651 18.4961 38.7639C18.3534 38.7626 18.214 38.7207 18.0943 38.643C17.9746 38.5653 17.8796 38.455 17.8203 38.3252C17.7611 38.1954 17.7402 38.0514 17.7599 37.9101C17.7599 34.9767 17.7599 32.0401 17.7599 29.1001C17.7454 28.9521 17.7746 28.8031 17.8439 28.6716C17.9133 28.54 18.0196 28.4317 18.1499 28.36C19.1509 27.8082 20.2768 27.5224 21.4199 27.5301V29.0001C21.3199 29.1401 21.1499 29.14 20.9999 29.17C20.8499 29.2 20.5099 29.2501 20.2699 29.3101C19.4299 29.5101 19.4099 29.5301 19.4099 30.4101V36.2101C19.4099 36.6701 19.4099 36.6701 19.8699 36.5601C20.5257 36.4118 21.1979 36.3479 21.8699 36.3701C22.0699 36.3901 22.3099 36.3301 22.3899 36.6001Z" fill="url(#paint9_linear_582_9)"/>
<path d="M32.0399 41.03V42.46H23.7899C23.6763 42.2316 23.6172 41.9801 23.6172 41.725C23.6172 41.4699 23.6763 41.2183 23.7899 40.99L32.0399 41.03Z" fill="url(#paint10_linear_582_9)"/>
<path d="M16.19 42.46C15.4918 42.5898 14.7701 42.4759 14.1457 42.1374C13.5213 41.7988 13.0322 41.2561 12.76 40.6C12.6669 40.4045 12.6061 40.1951 12.58 39.98C12.49 38.77 12.58 37.55 12.58 36.33C12.5912 36.24 12.6199 36.1532 12.6646 36.0743C12.7094 35.9955 12.7692 35.9262 12.8407 35.8705C12.9122 35.8147 12.994 35.7737 13.0814 35.7496C13.1688 35.7255 13.2601 35.7188 13.35 35.73C13.4481 35.7311 13.5449 35.7523 13.6345 35.7922C13.7241 35.832 13.8046 35.8898 13.8711 35.9619C13.9376 36.034 13.9886 36.1189 14.0211 36.2115C14.0536 36.304 14.0669 36.4022 14.06 36.5C14.06 37.36 14.06 38.22 14.06 39.07C14.0123 39.3291 14.028 39.5959 14.1059 39.8476C14.1839 40.0992 14.3216 40.3282 14.5074 40.515C14.6932 40.7018 14.9215 40.8408 15.1728 40.92C15.424 40.9993 15.6907 41.0164 15.95 40.97C16.0431 40.9601 16.137 40.9601 16.23 40.97C16.3356 41.2055 16.3868 41.4616 16.3798 41.7196C16.3729 41.9775 16.308 42.2306 16.19 42.46Z" fill="url(#paint11_linear_582_9)"/>
<path d="M16.1899 42.46V40.99H23.7899V42.46H16.1899Z" fill="url(#paint12_linear_582_9)"/>
<path d="M32.4999 6.53004V8.00004H28.2999C28.1981 8.00439 28.0965 7.98735 28.0017 7.95006C27.9068 7.91276 27.8208 7.85602 27.7493 7.78349C27.6777 7.71096 27.6221 7.62424 27.586 7.52891C27.55 7.43359 27.5343 7.33178 27.54 7.23002C27.5398 7.13201 27.5597 7.035 27.5983 6.94493C27.637 6.85486 27.6936 6.77366 27.7648 6.70625C27.8359 6.63884 27.9201 6.58667 28.0121 6.55293C28.1041 6.51919 28.2021 6.50458 28.2999 6.51002C29.6999 6.51002 31.0999 6.52004 32.4999 6.53004Z" fill="url(#paint13_linear_582_9)"/>
<path opacity="0.2" d="M33.6401 7.13H15.5601C14.1849 7.13 13.0701 8.24482 13.0701 9.62V39.26C13.0701 40.6352 14.1849 41.75 15.5601 41.75H33.6401C35.0153 41.75 36.1301 40.6352 36.1301 39.26V9.62C36.1301 8.24482 35.0153 7.13 33.6401 7.13Z" fill="url(#paint14_linear_582_9)"/>
</g>
<defs>
<linearGradient id="paint0_linear_582_9" x1="34.1735" y1="6.50659" x2="34.1735" y2="42.54" gradientUnits="userSpaceOnUse">
<stop stop-color="#CBFF33"/>
<stop offset="0.73" stop-color="#70D013"/>
<stop offset="1" stop-color="#4FBF07"/>
</linearGradient>
<linearGradient id="paint1_linear_582_9" x1="10.3547" y1="0.528931" x2="10.3547" y2="21.4157" gradientUnits="userSpaceOnUse">
<stop stop-color="#CBFF33"/>
<stop offset="0.73" stop-color="#70D013"/>
<stop offset="1" stop-color="#4FBF07"/>
</linearGradient>
<linearGradient id="paint2_linear_582_9" x1="15.1006" y1="6.50293" x2="15.1006" y2="33.4903" gradientUnits="userSpaceOnUse">
<stop stop-color="#CBFF33"/>
<stop offset="0.73" stop-color="#70D013"/>
<stop offset="1" stop-color="#4FBF07"/>
</linearGradient>
<linearGradient id="paint3_linear_582_9" x1="21.6099" y1="0.550049" x2="21.6099" y2="11.7525" gradientUnits="userSpaceOnUse">
<stop stop-color="#CBFF33"/>
<stop offset="0.73" stop-color="#70D013"/>
<stop offset="1" stop-color="#4FBF07"/>
</linearGradient>
<linearGradient id="paint4_linear_582_9" x1="3.09999" y1="2.01001" x2="3.09999" y2="21.5103" gradientUnits="userSpaceOnUse">
<stop stop-color="#CBFF33"/>
<stop offset="0.73" stop-color="#70D013"/>
<stop offset="1" stop-color="#4FBF07"/>
</linearGradient>
<linearGradient id="paint5_linear_582_9" x1="24.8195" y1="27.5173" x2="24.8195" y2="38.7426" gradientUnits="userSpaceOnUse">
<stop stop-color="#CBFF33"/>
<stop offset="0.73" stop-color="#70D013"/>
<stop offset="1" stop-color="#4FBF07"/>
</linearGradient>
<linearGradient id="paint6_linear_582_9" x1="26.9922" y1="14.0663" x2="26.9922" y2="26.0488" gradientUnits="userSpaceOnUse">
<stop stop-color="#CBFF33"/>
<stop offset="0.73" stop-color="#70D013"/>
<stop offset="1" stop-color="#4FBF07"/>
</linearGradient>
<linearGradient id="paint7_linear_582_9" x1="22.1103" y1="14.0072" x2="22.1103" y2="25.9786" gradientUnits="userSpaceOnUse">
<stop stop-color="#CBFF33"/>
<stop offset="0.73" stop-color="#70D013"/>
<stop offset="1" stop-color="#4FBF07"/>
</linearGradient>
<linearGradient id="paint8_linear_582_9" x1="29.3683" y1="27.55" x2="29.3683" y2="38.7199" gradientUnits="userSpaceOnUse">
<stop stop-color="#CBFF33"/>
<stop offset="0.73" stop-color="#70D013"/>
<stop offset="1" stop-color="#4FBF07"/>
</linearGradient>
<linearGradient id="paint9_linear_582_9" x1="20.0713" y1="27.5299" x2="20.0713" y2="38.7639" gradientUnits="userSpaceOnUse">
<stop stop-color="#CBFF33"/>
<stop offset="0.73" stop-color="#70D013"/>
<stop offset="1" stop-color="#4FBF07"/>
</linearGradient>
<linearGradient id="paint10_linear_582_9" x1="27.8286" y1="40.99" x2="27.8286" y2="42.46" gradientUnits="userSpaceOnUse">
<stop stop-color="#CBFF33"/>
<stop offset="0.73" stop-color="#70D013"/>
<stop offset="1" stop-color="#4FBF07"/>
</linearGradient>
<linearGradient id="paint11_linear_582_9" x1="14.4602" y1="35.7247" x2="14.4602" y2="42.5122" gradientUnits="userSpaceOnUse">
<stop stop-color="#CBFF33"/>
<stop offset="0.73" stop-color="#70D013"/>
<stop offset="1" stop-color="#4FBF07"/>
</linearGradient>
<linearGradient id="paint12_linear_582_9" x1="19.9899" y1="40.99" x2="19.9899" y2="42.46" gradientUnits="userSpaceOnUse">
<stop stop-color="#CBFF33"/>
<stop offset="0.73" stop-color="#70D013"/>
<stop offset="1" stop-color="#4FBF07"/>
</linearGradient>
<linearGradient id="paint13_linear_582_9" x1="30.0194" y1="6.50891" x2="30.0194" y2="8.00071" gradientUnits="userSpaceOnUse">
<stop stop-color="#CBFF33"/>
<stop offset="0.73" stop-color="#70D013"/>
<stop offset="1" stop-color="#4FBF07"/>
</linearGradient>
<linearGradient id="paint14_linear_582_9" x1="24.6001" y1="7.13" x2="24.6001" y2="41.75" gradientUnits="userSpaceOnUse">
<stop stop-color="#CBFF33"/>
<stop offset="0.73" stop-color="#70D013"/>
<stop offset="1" stop-color="#4FBF07"/>
</linearGradient>
<clipPath id="clip0_582_9">
<rect width="36.04" height="42.02" fill="white" transform="translate(0.5 0.5)"/>
</clipPath>
</defs>
</svg>
