<svg width="384" height="377" viewBox="0 0 384 377" fill="none" xmlns="http://www.w3.org/2000/svg">
<path d="M0.00012207 74.83C1.09121 73.0684 2.27978 71.3691 3.56018 69.74C6.71018 66.13 10.9202 65.53 15.4702 65.54C74.0902 65.5866 132.71 65.5866 191.33 65.54C200.73 65.54 200.73 65.54 200.73 55.97C200.73 42.22 200.73 28.47 200.73 14.72C200.73 5.27997 205.89 -2.92975e-05 215.28 -2.92975e-05C266.653 -0.0400293 318.024 -0.0400293 369.39 -2.92975e-05C378.72 -2.92975e-05 383.99 5.39997 383.99 14.69C383.99 66.0566 383.99 117.427 383.99 168.8C383.99 178.42 378.81 183.56 369.17 183.58C364.17 183.58 359.17 183.58 354.17 183.58C350.09 183.58 347.65 181.39 347.66 177.97C347.67 174.55 350.14 172.4 354.2 172.34C358.58 172.28 362.95 172.34 367.33 172.34C372.73 172.34 372.73 172.34 372.73 167.1V48.62C372.73 37.62 372.63 26.62 372.79 15.62C372.79 12.42 371.94 11.2 368.58 11.21C317.707 11.29 266.837 11.29 215.97 11.21C212.81 11.21 211.97 12.35 211.97 15.38C212.037 66.3666 212.037 117.367 211.97 168.38C211.97 171.94 213.43 172.38 216.46 172.38C252.334 172.3 288.204 172.283 324.07 172.33C325.317 172.246 326.57 172.283 327.81 172.44C330.88 173.08 332.7 175.01 332.55 178.22C332.4 181.43 330.55 183.39 327.35 183.52C322.61 183.71 317.85 183.7 313.11 183.52C310.86 183.44 310.11 183.98 310.11 186.37C310.29 192.11 310.17 197.87 310.17 203.62V359.62C310.17 371.44 305.46 376.13 293.56 376.13C201.7 376.13 109.837 376.163 17.9702 376.23C9.87021 376.23 3.58021 374.29 -0.0297852 366.56L0.00012207 74.83ZM130.78 306.39C131.64 305.25 132.26 304.48 132.84 303.66C155.407 271.767 177.97 239.87 200.53 207.97C206.14 200.03 211.64 199.97 217.28 207.97L272.64 285.79C273.32 286.79 274.03 287.68 275.21 289.28C275.3 288.01 275.35 287.57 275.35 287.12C275.35 253.5 275.35 219.88 275.42 186.25C275.42 183.56 274.21 183.62 272.29 183.62C253.543 183.66 234.793 183.66 216.04 183.62C205.59 183.62 200.75 178.76 200.74 168.24C200.74 146.87 200.66 125.49 200.82 104.12C200.82 100.98 200.04 100.23 196.94 100.24C162.81 100.36 128.69 100.31 94.5602 100.31C93.3134 100.395 92.0614 100.365 90.8202 100.22C87.7402 99.62 85.8902 97.72 85.9902 94.51C86.0902 91.3 87.9202 89.51 91.1102 89.11C92.2317 89.0283 93.3569 89.0116 94.4802 89.06H192.36C200.75 89.06 200.56 89.06 200.83 80.82C200.95 77.38 199.83 76.76 196.66 76.82C136.54 76.92 76.4168 76.9433 16.2902 76.89C11.2902 76.89 11.2902 76.89 11.2902 82.14V359.2C11.2902 364.88 11.2902 364.88 17.1102 364.88H293.11C298.92 364.88 298.92 364.88 298.92 359.15V191.91C298.92 183.6 298.92 183.77 290.65 183.52C287.37 183.42 286.55 184.23 286.56 187.57C286.68 238.697 286.707 289.823 286.64 340.95C286.64 349.18 283.32 352.48 275.03 352.51C267.03 352.51 259.03 352.51 251.03 352.51C246.62 352.51 244.17 350.37 244.22 346.83C244.27 343.29 246.8 341.3 251.22 341.28C258.35 341.28 265.48 341.15 272.6 341.33C275.02 341.39 275.47 340.61 275.44 338.38C275.307 329.633 275.307 320.883 275.44 312.13C275.477 310.025 274.792 307.972 273.5 306.31C252.834 277.35 232.2 248.35 211.6 219.31C210.76 218.14 209.88 217 208.9 215.68C185.49 248.75 162.29 281.58 139.01 314.35C137.88 315.94 138.22 316.88 139.2 318.23C144.03 324.91 148.85 331.6 153.48 338.41C154.023 339.356 154.824 340.129 155.788 340.639C156.753 341.149 157.842 341.374 158.93 341.29C179.56 341.18 200.18 341.23 220.81 341.24C222.056 341.164 223.307 341.224 224.54 341.42C227.62 342.14 229.29 344.18 229.02 347.42C228.997 348.753 228.451 350.023 227.501 350.958C226.552 351.893 225.273 352.418 223.94 352.42C222.57 352.54 221.19 352.51 219.82 352.51H48.0702C43.0702 352.51 38.0702 352.6 33.0702 352.44C27.5802 352.26 24.0701 348.81 23.5001 343.35C23.4301 342.352 23.4101 341.35 23.4402 340.35V101.12C23.4402 100.49 23.4402 99.86 23.4402 99.24C23.7002 92.81 27.4401 89.1 33.8901 89.06C43.6401 89.01 53.3901 89.06 63.1401 89.06C67.5801 89.06 70.0601 91.06 70.1401 94.61C70.2201 98.16 67.6202 100.28 63.2802 100.3C55.0302 100.3 46.7802 100.47 38.5302 100.24C35.4202 100.15 34.6602 100.99 34.6602 104.12C34.7602 174.493 34.7968 244.867 34.7701 315.24C34.7701 316.24 34.2802 317.43 35.3602 318.57C36.1502 317.57 36.9002 316.57 37.6002 315.57C51.1102 296.57 64.8901 277.67 78.0101 258.37C84.4301 248.92 90.8502 249.29 96.9202 258.3C107.72 274.49 119.31 290.15 130.78 306.39ZM87.5402 264.91C87.0202 265.49 86.6701 265.84 86.3801 266.24C69.5535 289.94 52.7268 313.65 35.9001 337.37C35.1801 338.37 34.1001 339.49 34.9001 340.71C35.5601 341.71 36.9802 341.19 38.0602 341.19C71.3935 341.19 104.753 341.19 138.14 341.19C139.07 341.19 140.14 341.56 141.24 340.59L87.5402 264.91Z" fill="url(#paint0_linear_586_120)"/>
<path d="M261.68 133.74C271.68 133.74 281.68 133.68 291.68 133.79C293.86 133.79 294.82 133.15 295.75 131.07C299.38 122.94 305.75 118.36 314.75 118.36C323.75 118.36 330.18 122.79 333.75 131C334.75 133.24 335.87 133.87 338.16 133.79C343.16 133.62 348.16 133.7 353.16 133.79C357.78 133.84 360.07 135.69 360.16 139.29C360.25 142.89 357.83 144.99 353.02 145.04C347.78 145.09 342.53 145.12 337.29 145.04C335.41 145.04 334.52 145.59 333.68 147.37C329.96 155.31 323.68 159.67 314.79 159.67C305.9 159.67 299.58 155.27 295.95 147.31C294.88 144.95 293.41 145.07 291.54 145.07H233.46C227.37 145.07 224.6 143.35 224.51 139.52C224.42 135.69 227.28 133.8 233.62 133.8L261.68 133.74ZM314.68 148.38C315.923 148.395 317.156 148.16 318.306 147.69C319.457 147.22 320.501 146.523 321.378 145.642C322.254 144.761 322.945 143.713 323.409 142.56C323.873 141.407 324.101 140.173 324.08 138.93C324.083 136.483 323.127 134.132 321.416 132.382C319.705 130.632 317.377 129.622 314.93 129.57C312.42 129.527 309.996 130.479 308.186 132.218C306.376 133.956 305.328 136.341 305.27 138.85C305.263 140.097 305.503 141.334 305.975 142.489C306.447 143.643 307.143 144.693 308.022 145.579C308.901 146.464 309.946 147.167 311.097 147.648C312.248 148.129 313.482 148.377 314.73 148.38H314.68Z" fill="url(#paint1_linear_586_120)"/>
<path d="M321 97.9499C310.63 97.9499 300.25 97.9499 289.88 97.9499C287.81 97.9499 286.68 98.3699 285.69 100.48C282.02 108.29 275.69 112.48 267.01 112.48C258.33 112.48 252.01 108.28 248.29 100.48C247.29 98.4299 246.29 97.8199 244.13 97.8899C239.76 98.0399 235.38 98.0099 231.01 97.8899C227.01 97.8099 224.44 95.45 224.47 92.16C224.5 88.87 227.02 86.6999 231.11 86.6699C235.61 86.6699 240.11 86.5999 244.61 86.6699C245.269 86.7694 245.942 86.6197 246.497 86.2499C247.051 85.88 247.448 85.3167 247.61 84.6699C251.17 75.9199 257.78 71.0899 267.24 71.1799C276.36 71.2699 282.84 76.03 286.24 84.4799C287.17 86.7799 288.51 86.6499 290.24 86.6499H351.73C352.857 86.6099 353.985 86.6299 355.11 86.7099C356.38 86.7287 357.595 87.2301 358.509 88.1123C359.423 88.9945 359.967 90.1914 360.03 91.4599C360.39 94.4599 359.09 96.5999 356.17 97.4599C354.842 97.7864 353.476 97.9278 352.11 97.88C341.743 97.9466 331.373 97.9699 321 97.9499ZM267 101.22C268.22 101.228 269.43 100.995 270.56 100.536C271.69 100.076 272.718 99.3985 273.587 98.5415C274.455 97.6844 275.146 96.6647 275.62 95.5405C276.094 94.4164 276.342 93.2099 276.35 91.9899C276.363 89.4632 275.374 87.0344 273.598 85.2365C271.823 83.4386 269.407 82.4185 266.88 82.3999C264.418 82.4577 262.072 83.4574 260.325 85.1932C258.578 86.9289 257.564 89.2684 257.49 91.7299C257.478 92.9846 257.717 94.2291 258.193 95.3899C258.67 96.5507 259.374 97.6044 260.264 98.4889C261.154 99.3733 262.212 100.071 263.376 100.54C264.539 101.009 265.785 101.24 267.04 101.22H267Z" fill="url(#paint2_linear_586_120)"/>
<path opacity="0.5" d="M87.5402 264.91L141.23 340.59C140.08 341.59 139.06 341.19 138.13 341.19C104.797 341.19 71.4369 341.19 38.0502 341.19C36.9702 341.19 35.5502 341.73 34.8902 340.71C34.1002 339.49 35.1802 338.38 35.8902 337.37C52.7235 313.663 69.5503 289.953 86.3703 266.24C86.6703 265.84 87.0202 265.49 87.5402 264.91Z" fill="url(#paint3_linear_586_120)"/>
<path opacity="0.5" d="M314.73 148.38C312.219 148.362 309.818 147.348 308.054 145.561C306.29 143.774 305.307 141.361 305.32 138.85C305.378 136.341 306.426 133.956 308.236 132.218C310.046 130.479 312.47 129.527 314.98 129.57C317.427 129.622 319.755 130.632 321.466 132.382C323.177 134.132 324.133 136.483 324.13 138.93C324.151 140.173 323.923 141.407 323.459 142.56C322.995 143.713 322.304 144.761 321.428 145.642C320.551 146.523 319.507 147.22 318.356 147.69C317.206 148.16 315.973 148.395 314.73 148.38Z" fill="url(#paint4_linear_586_120)"/>
<path opacity="0.5" d="M267.04 101.22C265.788 101.235 264.547 100.999 263.388 100.528C262.229 100.057 261.175 99.3584 260.289 98.4745C259.404 97.5906 258.703 96.5387 258.23 95.3806C257.756 94.2224 257.518 92.9813 257.53 91.73C257.603 89.2685 258.618 86.929 260.365 85.1932C262.112 83.4575 264.458 82.4578 266.92 82.4C269.446 82.4185 271.863 83.4387 273.638 85.2366C275.413 87.0345 276.403 89.4633 276.39 91.99C276.382 93.21 276.134 94.4165 275.66 95.5406C275.186 96.6647 274.495 97.6844 273.626 98.5415C272.758 99.3986 271.73 100.076 270.599 100.536C269.469 100.995 268.26 101.228 267.04 101.22Z" fill="url(#paint5_linear_586_120)"/>
<path d="M263.088 38.53C273.458 38.53 283.838 38.53 294.208 38.53C296.278 38.53 297.408 38.11 298.398 36C302.068 28.19 308.398 24 317.078 24C325.758 24 332.078 28.2 335.798 36C336.798 38.05 337.798 38.66 339.958 38.59C344.328 38.44 348.708 38.47 353.078 38.59C357.078 38.67 359.648 41.03 359.618 44.32C359.588 47.61 357.068 49.78 352.978 49.81C348.478 49.81 343.978 49.88 339.478 49.81C338.819 49.7105 338.147 49.8603 337.592 50.2301C337.037 50.5999 336.64 51.1632 336.478 51.81C332.918 60.56 326.308 65.39 316.848 65.3C307.728 65.21 301.248 60.45 297.848 52C296.918 49.7 295.578 49.83 293.848 49.83L232.358 49.83C231.232 49.8701 230.103 49.8501 228.978 49.77C227.708 49.7513 226.493 49.2499 225.579 48.3677C224.666 47.4855 224.122 46.2886 224.058 45.02C223.698 42.02 224.998 39.88 227.918 39.02C229.246 38.6936 230.612 38.5522 231.978 38.6C242.345 38.5333 252.715 38.51 263.088 38.53ZM317.088 35.26C315.868 35.2521 314.659 35.4846 313.529 35.9442C312.399 36.4037 311.37 37.0814 310.502 37.9385C309.634 38.7956 308.943 39.8153 308.468 40.9394C307.994 42.0635 307.746 43.27 307.738 44.49C307.725 47.0168 308.715 49.4456 310.49 51.2435C312.266 53.0414 314.682 54.0615 317.208 54.08C319.67 54.0223 322.016 53.0225 323.763 51.2868C325.51 49.5511 326.525 47.2115 326.598 44.75C326.611 43.4953 326.371 42.2509 325.895 41.0901C325.419 39.9293 324.715 38.8756 323.825 37.9911C322.935 37.1067 321.877 36.4094 320.713 35.9403C319.549 35.4713 318.303 35.2399 317.048 35.26L317.088 35.26Z" fill="url(#paint6_linear_586_120)"/>
<path opacity="0.5" d="M317.049 35.2599C318.3 35.2452 319.541 35.4805 320.701 35.952C321.86 36.4235 322.913 37.1216 323.799 38.0055C324.685 38.8894 325.385 39.9413 325.859 41.0994C326.333 42.2576 326.571 43.4987 326.559 44.75C326.485 47.2115 325.47 49.551 323.723 51.2867C321.977 53.0225 319.631 54.0222 317.169 54.08C314.642 54.0614 312.226 53.0413 310.45 51.2434C308.675 49.4455 307.685 47.0167 307.699 44.49C307.706 43.27 307.955 42.0635 308.429 40.9394C308.903 39.8152 309.594 38.7955 310.462 37.9384C311.33 37.0814 312.359 36.4037 313.489 35.9441C314.619 35.4845 315.829 35.252 317.049 35.2599Z" fill="url(#paint7_linear_586_120)"/>
<path d="M96.5298 138.49C105.678 138.535 114.436 142.198 120.893 148.679C127.349 155.16 130.979 163.932 130.99 173.08C130.968 177.642 130.046 182.156 128.278 186.362C126.51 190.568 123.93 194.384 120.686 197.592C117.442 200.8 113.597 203.337 109.371 205.057C105.146 206.778 100.622 207.649 96.0598 207.62C77.1598 207.5 61.5498 191.62 61.7998 172.81C61.8712 163.659 65.5662 154.909 72.0756 148.476C78.585 142.044 87.3783 138.453 96.5298 138.49ZM96.2498 149.75C93.1883 149.764 90.1598 150.382 87.3371 151.568C84.5144 152.753 81.953 154.483 79.7993 156.659C77.6457 158.835 75.9419 161.414 74.7856 164.249C73.6292 167.084 73.0427 170.119 73.0598 173.18C73.1179 179.361 75.6181 185.268 80.015 189.613C84.412 193.957 90.3486 196.386 96.5298 196.37C102.712 196.307 108.618 193.804 112.964 189.406C117.309 185.008 119.741 179.072 119.73 172.89C119.713 169.826 119.092 166.794 117.902 163.97C116.712 161.146 114.977 158.584 112.797 156.431C110.616 154.278 108.032 152.576 105.192 151.423C102.353 150.27 99.3143 149.688 96.2498 149.71V149.75Z" fill="url(#paint8_linear_586_120)"/>
<path opacity="0.5" d="M96.3541 148.001C99.4368 147.976 102.494 148.611 105.351 149.87C108.207 151.129 110.808 152.987 113.004 155.338C115.199 157.688 116.947 160.486 118.148 163.57C119.348 166.655 119.978 169.966 120 173.314C120.011 180.077 117.562 186.571 113.186 191.382C108.81 196.193 102.862 198.931 96.6361 199C90.4112 199.018 84.4326 196.36 80.0047 191.608C75.5767 186.855 73.0588 180.393 73.0004 173.632C72.9831 170.282 73.5737 166.963 74.7383 163.862C75.9028 160.761 77.6186 157.939 79.7875 155.559C81.9563 153.179 84.5358 151.286 87.3784 149.989C90.221 148.692 93.2709 148.016 96.3541 148.001Z" fill="url(#paint9_linear_586_120)"/>
<defs>
<linearGradient id="paint0_linear_586_120" x1="191.98" y1="-0.0300293" x2="191.98" y2="376.23" gradientUnits="userSpaceOnUse">
<stop stop-color="#CBFF33"/>
<stop offset="1" stop-color="#4FBF07"/>
</linearGradient>
<linearGradient id="paint1_linear_586_120" x1="292.335" y1="118.36" x2="292.335" y2="159.67" gradientUnits="userSpaceOnUse">
<stop stop-color="#CBFF33"/>
<stop offset="1" stop-color="#4FBF07"/>
</linearGradient>
<linearGradient id="paint2_linear_586_120" x1="292.279" y1="71.1787" x2="292.279" y2="112.48" gradientUnits="userSpaceOnUse">
<stop stop-color="#CBFF33"/>
<stop offset="1" stop-color="#4FBF07"/>
</linearGradient>
<linearGradient id="paint3_linear_586_120" x1="87.9218" y1="264.91" x2="87.9218" y2="341.333" gradientUnits="userSpaceOnUse">
<stop stop-color="#CBFF33"/>
<stop offset="1" stop-color="#4FBF07"/>
</linearGradient>
<linearGradient id="paint4_linear_586_120" x1="314.726" y1="129.569" x2="314.726" y2="148.381" gradientUnits="userSpaceOnUse">
<stop stop-color="#CBFF33"/>
<stop offset="1" stop-color="#4FBF07"/>
</linearGradient>
<linearGradient id="paint5_linear_586_120" x1="266.96" y1="82.4" x2="266.96" y2="101.221" gradientUnits="userSpaceOnUse">
<stop stop-color="#CBFF33"/>
<stop offset="1" stop-color="#4FBF07"/>
</linearGradient>
<linearGradient id="paint6_linear_586_120" x1="291.809" y1="65.3013" x2="291.809" y2="24" gradientUnits="userSpaceOnUse">
<stop stop-color="#4FBF07"/>
<stop offset="1" stop-color="#CBFF33"/>
</linearGradient>
<linearGradient id="paint7_linear_586_120" x1="317.129" y1="54.08" x2="317.129" y2="35.2593" gradientUnits="userSpaceOnUse">
<stop stop-color="#4FBF07"/>
<stop offset="1" stop-color="#CBFF33"/>
</linearGradient>
<linearGradient id="paint8_linear_586_120" x1="96.3934" y1="138.49" x2="96.3934" y2="207.621" gradientUnits="userSpaceOnUse">
<stop stop-color="#CBFF33"/>
<stop offset="1" stop-color="#4FBF07"/>
</linearGradient>
<linearGradient id="paint9_linear_586_120" x1="96.5" y1="148" x2="96.5" y2="199" gradientUnits="userSpaceOnUse">
<stop stop-color="#CBFF33"/>
<stop offset="1" stop-color="#4FBF07"/>
</linearGradient>
</defs>
</svg>
